Original title: Le amiche (The Girlfriends)
Released: 1955
Country: Italy
Genre: drama, romance
Director: Michelangelo Antonioni / Michelangelo Antonioni
Cast: Eleonora Rossi Drago, Gabriele Fertsetti, Franco Fabrizi, Valentina Cortese, Yvonne Furneaux, Madeleine Fischer, Anna Maria Pankani, Luciano Volpato, Maria Gambarelli, Ettore Manni, Marcella Ferri, Alessandro Furse


About movie: In Turin from Rome to open a new fashion house coming Clelia, a young business woman. The first night her neighbor in a hotel room Rosetta tries to commit suicide. When the poor are transported to the hospital, her friend, so Mom takes on an active investigation that involves in it, and Clelia. So the way for future converged three girlfriends ...


File info:
Quality: BDRip 1080p
Duration: 1:45:51
Audio:
1) Two-Russian voice-over (Culture)
2) Two-Russian voiceover
3) Russian odnogolosy voiceover (Valery "Lecturer" Ogo)
4) the original Italian track
Subtitles: Russian, English
Format: MKV


Video: MPEG-4 AVC, 12.5 Mbps, 1440h1080p, 24 fps, 4:3, High Profile 4.1
Audio 1: Dolby Digital 2.0, 48 kHz, 192 kbps
Audio 2: Dolby Digital 2.0, 48 kHz, 192 kbps
Audio 3: Dolby Digital .0, 48 kHz, 192 kbps
Audio 4: DTS 2.0, 48 kHz, 512 kbps, 16-bit


Format: Matroska
File size: 10.0 GiB
Duration: 1h 45mn
Overall bit rate: 13.6 Mbps

Video
ID: 1
Format: AVC
Format / Info: Advanced Video Codec
Format profile: High@L4.1
Format settings, CABAC: Yes
Format settings, ReFrames: 5 frames
Format settings, GOP: M = 1, N = 16
Muxing mode: Container profile = Unknown@4.1
Codec ID: V_MPEG4/ISO/AVC
Duration: 1h 45mn
Bit rate: 12.5 Mbps
Width: 1440 pixels
Height: 1080 pixels
Display aspect ratio: 4:3
Frame rate: 24.000 fps
Color space: YUV
Chroma subsampling: 4:2:0
Bit depth: 8 bits
Scan type: Progressive
Bits / (Pixel * Frame): 0.334
Stream size: 9.02 GiB (90%)
Writing library: x264 core 114 r1924 08d04a4
Language: English

Audio # 1
ID: 2
Format: AC-3
Format / Info: Audio Coding 3
Mode extension: CM (complete main)
Codec ID: A_AC3
Duration: 1h 45mn
Bit rate mode: Constant
Bit rate: 192 Kbps
Channel (s): 2 channels
Channel positions: Front: L R
Sampling rate: 48.0 KHz
Bit depth: 16 bits
Stream size: 145 MiB (1%)
Title: DVO [Culture]
Language: Russian

Audio # 2
ID: 3
Format: AC-3
Format / Info: Audio Coding 3
Mode extension: CM (complete main)
Codec ID: A_AC3
Duration: 1h 45mn
Bit rate mode: Constant
Bit rate: 192 Kbps
Channel (s): 2 channels
Channel positions: Front: L R
Sampling rate: 48.0 KHz
Bit depth: 16 bits
Stream size: 145 MiB (1%)
Title: DVO [R5]
Language: Russian

Audio # 3
ID: 4
Format: AC-3
Format / Info: Audio Coding 3
Mode extension: CM (complete main)
Codec ID: A_AC3
Duration: 1h 45mn
Bit rate mode: Constant
Bit rate: 192 Kbps
Channel (s): 2 channels
Channel positions: Front: L R
Sampling rate: 48.0 KHz
Bit depth: 16 bits
Stream size: 145 MiB (1%)
Title: AVO [Ogo]
Language: Russian

Audio # 4
ID: 5
Format: DTS
Format / Info: Digital Theater Systems
Codec ID: A_DTS
Duration: 1h 45mn
Bit rate mode: Constant
Bit rate: 512 Kbps
Channel (s): 2 channels
Channel positions: Front: L R
Sampling rate: 48.0 KHz
Bit depth: 24 bits
Stream size: 388 MiB (4%)
Title: Original
Language: Italian

Text # 1
ID: 6
Format: UTF-8
Codec ID: S_TEXT/UTF8
Codec ID / Info: UTF-8 Plain Text
Language: Russian

Text # 2
ID: 7
Format: UTF-8
Codec ID: S_TEXT/UTF8
Codec ID / Info: UTF-8 Plain Text
Language: English 

